<?xml version="1.0" encoding="UTF-8" standalone="no"?>
<svg
   xmlns:dc="http://purl.org/dc/elements/1.1/"
   xmlns:cc="http://creativecommons.org/ns#"
   xmlns:rdf="http://www.w3.org/1999/02/22-rdf-syntax-ns#"
   xmlns:svg="http://www.w3.org/2000/svg"
   xmlns="http://www.w3.org/2000/svg"
   id="svg1375"
   version="1.1"
   viewBox="0 0 208 29"
   height="29mm"
   width="208mm">
  <defs
     id="defs1369" />
  <metadata
     id="metadata1372">
    <rdf:RDF>
      <cc:Work
         rdf:about="">
        <dc:format>image/svg+xml</dc:format>
        <dc:type
           rdf:resource="http://purl.org/dc/dcmitype/StillImage" />
        <dc:title></dc:title>
      </cc:Work>
    </rdf:RDF>
  </metadata>
  <g
     transform="translate(0,-268)"
     id="layer1">
    <g
       id="text5331-5-2-57-2-3"
       style="font-style:normal;font-weight:normal;font-size:3.17499995px;line-height:0%;font-family:sans-serif;letter-spacing:0px;word-spacing:0px;fill:#000000;fill-opacity:1;stroke:none;stroke-width:0.26458332px;stroke-linecap:butt;stroke-linejoin:miter;stroke-opacity:1"
       aria-label="TagSpaces Web Clipper">
      <path
         id="path1947"
         style="font-style:normal;font-variant:normal;font-weight:normal;font-stretch:normal;font-size:21.16666603px;line-height:1.25;font-family:Pacifico;-inkscape-font-specification:Pacifico;letter-spacing:0px;fill:#616577;fill-opacity:1;stroke-width:0.26458332px"
         d="m 2.1281022,274.77323 q 0,-0.86816 0.3513998,-1.50895 0.361735,-0.65112 1.0025227,-1.10587 0.651123,-0.45476 1.5502929,-0.74414 0.9095052,-0.29973 1.9947103,-0.46509 1.085205,-0.16537 2.3254393,-0.22738 1.2402348,-0.062 2.5631508,-0.062 1.79834,0 3.762044,0.14469 1.97404,0.1447 4.113444,0.5271 0.496094,0.10336 0.692464,0.37207 0.206706,0.26872 0.206706,0.59945 0,0.20671 -0.09302,0.40308 -0.09302,0.19637 -0.248047,0.36173 -0.15503,0.16537 -0.361735,0.26872 -0.206706,0.093 -0.434082,0.093 -0.795817,0 -1.663981,-0.0827 -0.857829,-0.0827 -1.79834,-0.18603 -0.930176,-0.10335 -1.922363,-0.20671 -0.992188,-0.10335 -2.046387,-0.15503 -0.186035,1.15756 -0.475423,2.49081 -0.289388,1.33325 -0.640788,2.72851 -0.341064,1.38493 -0.72347,2.76986 -0.3720703,1.37459 -0.72347,2.6355 -0.3513998,1.25057 -0.6614583,2.3151 -0.2997233,1.06454 -0.4960938,1.82935 -0.082682,0.3514 -0.2583821,0.65112 -0.1653646,0.28939 -0.3824056,0.50643 -0.2067057,0.21704 -0.434082,0.33073 -0.2273763,0.12402 -0.4237468,0.12402 -0.5891113,0 -0.9715169,-0.27905 -0.3824056,-0.27905 -0.3824056,-0.89917 0,-0.19637 0.062012,-0.43408 0.1343587,-0.94051 0.3513997,-1.85002 0.2273763,-0.9095 0.5270996,-1.89135 0.2997233,-0.99219 0.6821289,-2.09807 0.3824056,-1.10587 0.8474934,-2.42879 0.4650879,-1.33325 1.0025228,-2.93522 0.5477702,-1.60197 1.1782229,-3.56568 -0.5477705,0.0413 -1.1162112,0.093 -0.5581054,0.0517 -1.0955403,0.1447 -0.5270996,0.0827 -0.9921875,0.21704 -0.4547526,0.13436 -0.8061523,0.34106 -0.3410645,0.20671 -0.5477702,0.4961 -0.1963704,0.28938 -0.1963704,0.68212 0,0.0207 -0.031006,0.22738 -0.020671,0.20671 -0.1756998,0.45475 -0.1550293,0.23771 -0.4960938,0.44442 -0.3307291,0.19637 -0.9508463,0.19637 -0.6201172,0 -0.9611816,-0.2067 -0.3410645,-0.20671 -0.4960937,-0.45476 -0.1860352,-0.28939 -0.2067058,-0.66146 z" />
      <path
         id="path1949"
         style="font-style:normal;font-variant:normal;font-weight:normal;font-stretch:normal;font-size:21.16666603px;line-height:1.25;font-family:Pacifico;-inkscape-font-specification:Pacifico;letter-spacing:0px;fill:#616577;fill-opacity:1;stroke-width:0.26458332px"
         d="m 24.225029,285.98702 q -0.237712,0.33073 -0.640788,0.77515 -0.392741,0.44441 -0.888835,0.84749 -0.496093,0.40308 -1.064534,0.68213 -0.568441,0.27905 -1.136882,0.27905 -0.682129,0 -1.136881,-0.43408 -0.454753,-0.44442 -0.785482,-1.28158 -0.248047,0.28939 -0.609782,0.58912 -0.361735,0.29972 -0.795817,0.54777 -0.423747,0.23771 -0.888834,0.39274 -0.465088,0.15503 -0.930176,0.15503 -0.496094,0 -0.971517,-0.19637 -0.465088,-0.20671 -0.826823,-0.57878 -0.361735,-0.38241 -0.578776,-0.91984 -0.217041,-0.54777 -0.217041,-1.2299 0,-0.77515 0.217041,-1.59163 0.217041,-0.81649 0.599447,-1.59164 0.382405,-0.78548 0.899169,-1.47794 0.5271,-0.69247 1.147217,-1.20923 0.620117,-0.51677 1.302246,-0.81649 0.692464,-0.31006 1.405599,-0.31006 0.237712,0 0.372071,0.093 0.134358,0.093 0.217041,0.21704 0.09302,0.11369 0.175699,0.22738 0.08268,0.11368 0.206706,0.16536 0.124024,0.0517 0.248047,0.0723 0.134359,0.0103 0.268717,0.0103 0.113689,0 0.227377,0 0.124023,-0.0103 0.237711,-0.0103 0.15503,0 0.289388,0.031 0.134359,0.031 0.237712,0.13436 0.103353,0.10335 0.155029,0.28939 0.06201,0.18604 0.06201,0.50643 0,0.49609 -0.103353,1.10587 -0.103353,0.59945 -0.227376,1.24024 -0.124024,0.63045 -0.227377,1.27124 -0.103352,0.63045 -0.103352,1.19889 0,0.48576 0.08268,0.76481 0.09302,0.26872 0.382405,0.26872 0.217041,0 0.454753,-0.10335 0.237712,-0.11369 0.475423,-0.28939 0.248047,-0.1757 0.485759,-0.39274 0.248047,-0.22738 0.465088,-0.46509 0.506429,-0.5581 1.023193,-1.2609 z m -8.826335,-0.81649 q 0,0.25838 0.03101,0.50643 0.04134,0.23771 0.134359,0.43408 0.09302,0.18604 0.248047,0.31006 0.155029,0.11369 0.392741,0.11369 0.382405,0 0.692464,-0.33073 0.310058,-0.33073 0.537435,-0.79582 0.227376,-0.46508 0.361735,-0.96118 0.144694,-0.49609 0.186035,-0.82682 l 0.630452,-3.03857 q -0.423746,0 -0.826823,0.21704 -0.403076,0.2067 -0.764811,0.56844 -0.3514,0.36173 -0.651123,0.82682 -0.299723,0.46509 -0.516764,0.98185 -0.217041,0.50643 -0.341065,1.0232 -0.113688,0.51676 -0.113688,0.97151 z" />
      <path
         id="path1951"
         style="font-style:normal;font-variant:normal;font-weight:normal;font-stretch:normal;font-size:21.16666603px;line-height:1.25;font-family:Pacifico;-inkscape-font-specification:Pacifico;letter-spacing:0px;fill:#616577;fill-opacity:1;stroke-width:0.26458332px"
         d="m 27.273938,287.43396 q -0.558105,0.49609 -1.167887,0.80615 -0.599447,0.29973 -1.167888,0.29973 -0.496093,0 -0.971517,-0.19637 -0.465087,-0.20671 -0.826822,-0.57878 -0.361735,-0.38241 -0.578776,-0.91984 -0.217041,-0.54777 -0.217041,-1.2299 0,-0.77515 0.217041,-1.59163 0.217041,-0.81649 0.599446,-1.59164 0.382406,-0.78548 0.89917,-1.47794 0.5271,-0.69247 1.147217,-1.20923 0.620117,-0.51677 1.302246,-0.81649 0.692464,-0.31006 1.405599,-0.31006 0.237711,0 0.37207,0.093 0.134359,0.093 0.217041,0.21704 0.09302,0.11369 0.1757,0.22738 0.08268,0.11368 0.206706,0.16536 0.124023,0.0517 0.248047,0.0723 0.134358,0.0103 0.268717,0.0103 0.113688,0 0.227376,0 0.124024,-0.0103 0.237712,-0.0103 0.155029,0 0.289388,0.031 0.134359,0.031 0.237711,0.13436 0.103353,0.10335 0.15503,0.28939 0.06201,0.18604 0.06201,0.50643 0,0.26872 -0.04134,0.72347 -0.04134,0.45475 -0.113688,1.01286 -0.07235,0.5581 -0.165364,1.18855 -0.08268,0.62012 -0.1757,1.21957 -0.217041,1.42627 -0.496094,3.04891 0.310059,-0.1757 0.671794,-0.43408 0.361735,-0.25839 0.806152,-0.69247 0.444417,-0.43408 0.992187,-1.0852 0.547771,-0.66146 1.229899,-1.64331 l 0.496094,2.29443 q -0.186035,0.32039 -0.485758,0.66146 -0.289388,0.33073 -0.651123,0.67179 -0.3514,0.33073 -0.744141,0.65112 -0.382406,0.31006 -0.754476,0.58912 -0.878499,0.66145 -1.891357,1.28157 -0.196371,1.10588 -0.465088,2.14974 -0.268718,1.0542 -0.640788,1.96371 -0.361735,0.91984 -0.837158,1.68465 -0.465088,0.76481 -1.064534,1.31258 -0.589112,0.54777 -1.322917,0.84749 -0.733805,0.31006 -1.62264,0.31006 -0.3514,0 -0.764811,-0.0724 -0.403076,-0.0723 -0.754476,-0.28938 -0.341065,-0.21705 -0.568441,-0.62012 -0.227376,-0.40308 -0.227376,-1.07487 0,-0.46509 0.237711,-1.0542 0.237712,-0.57878 0.651123,-1.2299 0.413412,-0.64079 0.981853,-1.34359 0.56844,-0.69246 1.229899,-1.38493 0.671793,-0.69246 1.395263,-1.36425 0.733806,-0.6718 1.477946,-1.28158 z m -2.284098,-2.26343 q 0,0.25838 0.03101,0.50643 0.04134,0.23771 0.134358,0.43408 0.09302,0.18604 0.248047,0.31006 0.15503,0.11369 0.392741,0.11369 0.382406,0 0.692464,-0.33073 0.310059,-0.33073 0.537435,-0.79582 0.227376,-0.46508 0.361735,-0.96118 0.144694,-0.49609 0.186035,-0.82682 l 0.630453,-3.03857 q -0.423747,0 -0.826823,0.21704 -0.403076,0.2067 -0.764811,0.56844 -0.3514,0.36173 -0.651123,0.82682 -0.299724,0.46509 -0.516765,0.98185 -0.217041,0.50643 -0.341064,1.0232 -0.113688,0.51676 -0.113688,0.97151 z m -1.529623,10.95541 q 0.434082,0 0.816488,-0.25839 0.392741,-0.24804 0.713135,-0.66145 0.330729,-0.41342 0.599446,-0.94052 0.268718,-0.5271 0.475424,-1.0852 0.206705,-0.54777 0.351399,-1.07487 0.144694,-0.5271 0.227377,-0.94051 -0.403077,0.26872 -0.826823,0.64079 -0.413412,0.37207 -0.816488,0.79581 -0.392741,0.43409 -0.754476,0.88884 -0.3514,0.45475 -0.620117,0.86816 -0.268717,0.42375 -0.423747,0.78548 -0.155029,0.36174 -0.155029,0.59945 0,0.38241 0.413411,0.38241 z" />
      <path
         id="path1953"
         style="font-style:normal;font-variant:normal;font-weight:normal;font-stretch:normal;font-size:21.16666603px;line-height:1.25;font-family:Pacifico;-inkscape-font-specification:Pacifico;letter-spacing:0px;fill:#616577;fill-opacity:1;stroke-width:0.26458332px"
         d="m 36.915353,274.95927 q 0,0.68213 0.39274,1.21956 0.403077,0.53744 1.0542,1.00253 0.661458,0.45475 1.488281,0.86816 0.837158,0.41341 1.705322,0.85783 0.878499,0.43408 1.705322,0.94051 0.837158,0.49609 1.488281,1.12655 0.661459,0.63045 1.0542,1.42627 0.403076,0.79581 0.403076,1.81901 0,0.93017 -0.299723,1.71565 -0.299724,0.77515 -0.826823,1.39527 -0.516765,0.62011 -1.229899,1.09554 -0.713135,0.47542 -1.539958,0.78548 -0.826823,0.31006 -1.736328,0.46509 -0.909505,0.16536 -1.829346,0.16536 -1.291911,0 -2.511474,-0.32039 -1.219564,-0.31006 -2.17041,-0.95085 -0.950847,-0.63045 -1.529623,-1.5813 -0.56844,-0.96118 -0.56844,-2.24275 0,-0.66146 0.206705,-1.15756 0.217041,-0.50643 0.5271,-0.83715 0.320394,-0.34107 0.692464,-0.50643 0.37207,-0.1757 0.692464,-0.1757 0.330729,0 0.54777,0.18603 0.227377,0.1757 0.227377,0.55811 0,0.1757 -0.04134,0.37207 -0.04134,0.19637 -0.09302,0.43408 -0.04134,0.22738 -0.08268,0.50643 -0.04134,0.27905 -0.04134,0.60978 0,0.72347 0.33073,1.25057 0.330729,0.5271 0.878499,0.86816 0.54777,0.34107 1.260905,0.50643 0.713135,0.16537 1.477946,0.16537 0.89917,0 1.79834,-0.21704 0.899169,-0.21704 1.612304,-0.64079 0.713135,-0.42375 1.157552,-1.03353 0.444418,-0.62012 0.444418,-1.41593 0,-0.73381 -0.403077,-1.31259 -0.39274,-0.57877 -1.054199,-1.06453 -0.651123,-0.49609 -1.488281,-0.93018 -0.837158,-0.43408 -1.705322,-0.87849 -0.868164,-0.44442 -1.705322,-0.93018 -0.837159,-0.49609 -1.498617,-1.08521 -0.651123,-0.58911 -1.054199,-1.31258 -0.392741,-0.7338 -0.392741,-1.66398 0,-0.86816 0.413411,-1.70532 0.423747,-0.84749 1.260905,-1.50895 0.847494,-0.6718 2.108399,-1.08521 1.260905,-0.41341 2.955892,-0.41341 1.074869,0 2.098063,0.3204 1.033528,0.32039 1.839681,0.9095 0.806152,0.58911 1.29191,1.4056 0.496094,0.81649 0.496094,1.80867 0,0.58912 -0.206706,1.20923 -0.19637,0.62012 -0.640787,1.29191 -0.434082,0.65113 -0.950847,0.97152 -0.506429,0.31006 -0.91984,0.31006 -0.310059,0 -0.506429,-0.1757 -0.196371,-0.18604 -0.196371,-0.54777 0,-0.26872 0.124024,-0.63045 0.124023,-0.37207 0.423747,-0.8475 0.279052,-0.45475 0.413411,-0.84749 0.134359,-0.40308 0.134359,-0.74414 0,-0.5271 -0.289388,-0.91984 -0.279053,-0.40308 -0.785482,-0.67179 -0.496094,-0.26872 -1.198893,-0.40308 -0.7028,-0.13436 -1.539958,-0.13436 -0.930176,0 -1.62264,0.21704 -0.682129,0.20671 -1.147217,0.54777 -0.454752,0.33073 -0.682128,0.74414 -0.217041,0.41341 -0.217041,0.81649 z" />
      <path
         id="path1955"
         style="font-style:normal;font-variant:normal;font-weight:normal;font-stretch:normal;font-size:21.16666603px;line-height:1.25;font-family:Pacifico;-inkscape-font-specification:Pacifico;letter-spacing:0px;fill:#616577;fill-opacity:1;stroke-width:0.26458332px"
         d="m 51.082384,286.67948 q 1.043864,0 1.901693,-0.2067 0.857829,-0.20671 1.550293,-0.55811 0.702799,-0.3514 1.260905,-0.81648 0.56844,-0.47543 1.023193,-1.01286 l 0.113688,2.36678 q -0.330729,0.40307 -0.806152,0.78548 -0.465088,0.37207 -1.023193,0.66146 -0.558106,0.27905 -1.178223,0.45475 -0.609782,0.16537 -1.209229,0.16537 -0.07235,0 -0.186035,-0.0207 -0.103353,-0.0207 -0.37207,-0.0723 -0.268717,-0.0517 -0.775146,-0.13436 -0.496094,-0.093 -1.353923,-0.21704 v 0.18603 q 0,1.88102 -0.320394,3.41065 -0.310058,1.53995 -0.837158,2.62516 -0.5271,1.08521 -1.209228,1.67432 -0.682129,0.58911 -1.415935,0.58911 -0.589111,0 -0.981852,-0.28939 -0.392741,-0.28939 -0.620117,-0.78548 -0.237712,-0.48576 -0.330729,-1.14722 -0.103353,-0.65112 -0.103353,-1.38493 0,-0.42374 0.134359,-0.96118 0.134358,-0.5271 0.361735,-1.11621 0.227376,-0.57878 0.516764,-1.18856 0.279053,-0.59944 0.578776,-1.16788 0.702799,-1.32292 1.601969,-2.72852 0.113689,-0.80615 0.227377,-1.65365 0.124023,-0.84749 0.299723,-1.64331 0.186035,-0.79581 0.454753,-1.50895 0.279052,-0.71313 0.702799,-1.24023 0.434082,-0.5271 1.033529,-0.83716 0.599446,-0.31006 1.44694,-0.31006 0.630452,0 1.178222,0.1757 0.54777,0.16536 0.961182,0.54777 0.413411,0.38241 0.651123,0.99219 0.237712,0.59944 0.237712,1.47794 0,0.7028 -0.206706,1.36426 -0.206706,0.65112 -0.651123,1.25057 -0.434082,0.59945 -1.116211,1.12655 -0.671794,0.51676 -1.601969,0.93017 z m -1.302246,-1.04386 q 0.620117,-0.31006 1.064535,-0.69246 0.454752,-0.38241 0.775146,-0.81649 0.330729,-0.43408 0.537435,-0.89917 0.206706,-0.46509 0.330729,-0.95085 0.05168,-0.22737 0.06201,-0.5271 0.02067,-0.31006 -0.06201,-0.57877 -0.07235,-0.26872 -0.268717,-0.45476 -0.186035,-0.19637 -0.5271,-0.19637 -0.382405,0 -0.671793,0.21704 -0.289388,0.20671 -0.506429,0.56845 -0.206706,0.36173 -0.3514,0.85782 -0.134359,0.4961 -0.227377,1.06454 -0.08268,0.56844 -0.124023,1.18856 -0.03101,0.60978 -0.03101,1.21956 z m -3.596679,7.44141 q 0,0.0827 0.03101,0.26871 0.04134,0.18604 0.124024,0.37207 0.08268,0.18604 0.217041,0.33073 0.134359,0.1447 0.330729,0.1447 0.1757,0 0.289388,-0.19637 0.113688,-0.18604 0.186035,-0.50643 0.07235,-0.3204 0.103353,-0.72347 0.03101,-0.40308 0.05168,-0.82683 0.02067,-0.42374 0.02067,-0.82682 0.01033,-0.40307 0.03101,-0.72347 0.03101,-0.5581 0.04134,-0.95084 0.02067,-0.38241 0.03101,-0.64079 0.01033,-0.28939 0.02067,-0.48576 -0.196371,0.34106 -0.382406,0.78548 -0.186035,0.45475 -0.3514,0.94051 -0.165364,0.48576 -0.299723,0.97152 -0.134359,0.48576 -0.237712,0.89917 -0.09302,0.42375 -0.155029,0.72347 -0.05168,0.31006 -0.05168,0.44442 z" />
      <path
         id="path1957"
         style="font-style:normal;font-variant:normal;font-weight:normal;font-stretch:normal;font-size:21.16666603px;line-height:1.25;font-family:Pacifico;-inkscape-font-specification:Pacifico;letter-spacing:0px;fill:#616577;fill-opacity:1;stroke-width:0.26458332px"
         d="m 66.523301,285.98702 q -0.237712,0.33073 -0.640788,0.77515 -0.392741,0.44441 -0.888835,0.84749 -0.496093,0.40308 -1.064534,0.68213 -0.568441,0.27905 -1.136882,0.27905 -0.682128,0 -1.136881,-0.43408 -0.454753,-0.44442 -0.785482,-1.28158 -0.248047,0.28939 -0.609782,0.58912 -0.361735,0.29972 -0.795817,0.54777 -0.423746,0.23771 -0.888834,0.39274 -0.465088,0.15503 -0.930176,0.15503 -0.496094,0 -0.971517,-0.19637 -0.465088,-0.20671 -0.826823,-0.57878 -0.361735,-0.38241 -0.578776,-0.91984 -0.217041,-0.54777 -0.217041,-1.2299 0,-0.77515 0.217041,-1.59163 0.217041,-0.81649 0.599447,-1.59164 0.382405,-0.78548 0.89917,-1.47794 0.527099,-0.69247 1.147216,-1.20923 0.620118,-0.51677 1.302246,-0.81649 0.692465,-0.31006 1.405599,-0.31006 0.237712,0 0.372071,0.093 0.134358,0.093 0.217041,0.21704 0.09302,0.11369 0.1757,0.22738 0.08268,0.11368 0.206705,0.16536 0.124024,0.0517 0.248047,0.0723 0.134359,0.0103 0.268718,0.0103 0.113688,0 0.227376,0 0.124023,-0.0103 0.237711,-0.0103 0.15503,0 0.289388,0.031 0.134359,0.031 0.237712,0.13436 0.103353,0.10335 0.155029,0.28939 0.06201,0.18604 0.06201,0.50643 0,0.49609 -0.103353,1.10587 -0.103353,0.59945 -0.227376,1.24024 -0.124024,0.63045 -0.227376,1.27124 -0.103353,0.63045 -0.103353,1.19889 0,0.48576 0.08268,0.76481 0.09302,0.26872 0.382406,0.26872 0.217041,0 0.454752,-0.10335 0.237712,-0.11369 0.475423,-0.28939 0.248047,-0.1757 0.485759,-0.39274 0.248047,-0.22738 0.465088,-0.46509 0.506429,-0.5581 1.023193,-1.2609 z m -8.826335,-0.81649 q 0,0.25838 0.03101,0.50643 0.04134,0.23771 0.134359,0.43408 0.09302,0.18604 0.248047,0.31006 0.155029,0.11369 0.392741,0.11369 0.382405,0 0.692464,-0.33073 0.310058,-0.33073 0.537435,-0.79582 0.227376,-0.46508 0.361735,-0.96118 0.144694,-0.49609 0.186035,-0.82682 l 0.630452,-3.03857 q -0.423746,0 -0.826823,0.21704 -0.403076,0.2067 -0.764811,0.56844 -0.351399,0.36173 -0.651123,0.82682 -0.299723,0.46509 -0.516764,0.98185 -0.217041,0.50643 -0.341064,1.0232 -0.113689,0.51676 -0.113689,0.97151 z" />
      <path
         id="path1959"
         style="font-style:normal;font-variant:normal;font-weight:normal;font-stretch:normal;font-size:21.16666603px;line-height:1.25;font-family:Pacifico;-inkscape-font-specification:Pacifico;letter-spacing:0px;fill:#616577;fill-opacity:1;stroke-width:0.26458332px"
         d="m 68.497339,288.51917 q -0.950846,0 -1.674316,-0.3514 -0.713135,-0.3514 -1.198893,-0.94052 -0.485759,-0.58911 -0.733805,-1.36425 -0.248047,-0.77515 -0.248047,-1.61231 0,-0.59944 0.124023,-1.25057 0.124024,-0.65112 0.361735,-1.27124 0.248047,-0.63045 0.599447,-1.19889 0.361735,-0.56844 0.826823,-0.99219 0.475423,-0.43408 1.054199,-0.68213 0.578776,-0.25838 1.27124,-0.25838 0.589111,0 1.085205,0.18604 0.506429,0.1757 0.857829,0.49609 0.361735,0.32039 0.558105,0.76481 0.206706,0.43408 0.206706,0.94051 0,0.3514 -0.09302,0.69247 -0.09302,0.34106 -0.279052,0.62011 -0.1757,0.26872 -0.434082,0.43408 -0.258382,0.16537 -0.578776,0.16537 -0.485759,0 -0.640788,-0.25838 -0.144694,-0.25838 -0.144694,-0.71314 0,-0.18603 0.01033,-0.39274 0.02067,-0.2067 0.02067,-0.37207 0,-0.24805 -0.05168,-0.41341 -0.05168,-0.16536 -0.227376,-0.16536 -0.423747,0 -0.72347,0.2067 -0.299723,0.19637 -0.516764,0.5271 -0.206706,0.32039 -0.330729,0.73381 -0.124024,0.40307 -0.196371,0.80615 -0.07235,0.40307 -0.09302,0.77514 -0.02067,0.36174 -0.02067,0.60979 0,0.37207 0.06201,0.77514 0.07235,0.40308 0.258382,0.74414 0.186035,0.33073 0.506429,0.55811 0.320394,0.21704 0.826823,0.21704 0.496093,0 1.09554,-0.29972 0.599447,-0.31006 1.198893,-0.77515 0.609782,-0.46509 1.157552,-1.02319 0.54777,-0.55811 0.940511,-1.0542 l 0.713135,1.19889 q -0.775146,1.10588 -1.674316,1.97404 -0.382406,0.37207 -0.837158,0.72347 -0.444418,0.3514 -0.940511,0.63045 -0.485759,0.26872 -1.023194,0.44442 -0.527099,0.16537 -1.07487,0.16537 z" />
      <path
         id="path1961"
         style="font-style:normal;font-variant:normal;font-weight:normal;font-stretch:normal;font-size:21.16666603px;line-height:1.25;font-family:Pacifico;-inkscape-font-specification:Pacifico;letter-spacing:0px;fill:#616577;fill-opacity:1;stroke-width:0.26458332px"
         d="m 76.403836,288.51917 q -0.971517,0 -1.705322,-0.3514 -0.72347,-0.3514 -1.209229,-0.94052 -0.485758,-0.59944 -0.733805,-1.37459 -0.237711,-0.78548 -0.237711,-1.64331 0,-0.57878 0.113688,-1.21956 0.113688,-0.65113 0.341064,-1.27124 0.237712,-0.62012 0.589111,-1.17823 0.3514,-0.56844 0.816488,-0.99218 0.475423,-0.43409 1.054199,-0.68213 0.589112,-0.25838 1.302246,-0.25838 0.578776,0 1.07487,0.18603 0.496094,0.18604 0.857829,0.5271 0.37207,0.33073 0.578776,0.80615 0.206706,0.47543 0.206706,1.06454 0,0.64078 -0.320394,1.28157 -0.310059,0.64079 -0.868164,1.20923 -0.558106,0.56844 -1.333252,1.01286 -0.764811,0.44442 -1.663981,0.69246 0.155029,0.27906 0.299723,0.46509 0.155029,0.18604 0.310059,0.28939 0.155029,0.10335 0.320393,0.14469 0.1757,0.0413 0.372071,0.0413 0.620117,0 1.302246,-0.24804 0.692464,-0.24805 1.343587,-0.62012 0.651123,-0.37207 1.229899,-0.80615 0.578776,-0.44442 0.981852,-0.83716 l 1.333252,1.38493 q -0.909505,0.94051 -1.932698,1.66398 -0.444418,0.31006 -0.961182,0.60978 -0.506429,0.29972 -1.07487,0.53744 -0.558105,0.22737 -1.167887,0.37207 -0.599447,0.13436 -1.219564,0.13436 z m -1.374593,-4.85759 q 0.37207,0 0.806152,-0.18603 0.444418,-0.19638 0.816488,-0.4961 0.382406,-0.29972 0.640788,-0.65112 0.258382,-0.3514 0.258382,-0.68213 0,-0.46509 -0.1757,-0.76481 -0.165365,-0.29972 -0.413411,-0.29972 -0.444418,0 -0.764812,0.16536 -0.310058,0.16536 -0.527099,0.43408 -0.206706,0.25838 -0.341065,0.59945 -0.124023,0.33073 -0.19637,0.67179 -0.06201,0.34107 -0.08268,0.66146 -0.02067,0.32039 -0.02067,0.54777 z" />
      <path
         id="path1963"
         style="font-style:normal;font-variant:normal;font-weight:normal;font-stretch:normal;font-size:21.16666603px;line-height:1.25;font-family:Pacifico;-inkscape-font-specification:Pacifico;letter-spacing:0px;fill:#616577;fill-opacity:1;stroke-width:0.26458332px"
         d="m 80.723983,284.55042 q 0.578776,-0.4961 0.940511,-0.82683 0.361735,-0.33073 0.620118,-0.59944 0.258382,-0.27906 0.465087,-0.55811 0.217042,-0.27905 0.50643,-0.66146 0.289388,-0.3824 0.702799,-0.93017 0.413411,-0.55811 1.07487,-1.38493 0.134358,-0.18604 0.299723,-0.36174 0.165365,-0.1757 0.361735,-0.31006 0.206706,-0.14469 0.444417,-0.22737 0.248047,-0.093 0.547771,-0.093 0.496093,0 0.764811,0.11369 0.268717,0.10335 0.392741,0.25838 0.124023,0.15503 0.144694,0.33073 0.02067,0.16536 0.02067,0.28939 0,0.24804 -0.19637,0.54777 -0.196371,0.29972 -0.434082,0.57877 -0.237712,0.27906 -0.454753,0.51677 -0.206706,0.22737 -0.237711,0.34106 0,0.3204 0.04134,0.58911 0.05168,0.25839 0.124023,0.51677 0.08268,0.24805 0.165365,0.53743 0.08268,0.27906 0.155029,0.65113 0.08268,0.37207 0.124023,0.85783 0.05168,0.48575 0.05168,1.14721 0.37207,-0.24805 0.795817,-0.44442 0.434082,-0.2067 0.89917,-0.42374 0.465088,-0.21704 0.950846,-0.47543 0.496094,-0.26871 0.992188,-0.64078 l 0.01033,2.3151 q -0.640788,0.49609 -1.488281,0.93018 -0.837159,0.43408 -1.767334,0.76481 -0.919841,0.33073 -1.870687,0.5271 -0.940511,0.18603 -1.788005,0.18603 -0.609781,0 -1.136881,-0.11369 -0.5271,-0.11368 -0.930176,-0.3514 -0.392741,-0.24804 -0.640788,-0.64078 -0.248046,-0.39274 -0.299723,-0.95085 -0.144694,0.031 -0.289388,0.0413 -0.134359,0.0103 -0.268717,0.0103 -0.165365,0 -0.310059,-0.0103 -0.144694,-0.0103 -0.248047,-0.0723 -0.103353,-0.0723 -0.165364,-0.21704 -0.06201,-0.15503 -0.06201,-0.43408 0,-0.24805 0.124023,-0.45475 0.124024,-0.21704 0.289388,-0.38241 0.165365,-0.16536 0.33073,-0.28938 0.165364,-0.12403 0.248046,-0.19637 z m 1.322917,1.32291 q 0.124023,0 0.268717,0.15503 0.15503,0.15503 0.3514,0.34107 0.196371,0.18603 0.454753,0.34106 0.258382,0.15503 0.589111,0.15503 0.403076,0 0.661458,-0.13436 0.268718,-0.13436 0.423747,-0.3514 0.155029,-0.22738 0.217041,-0.51676 0.06201,-0.29973 0.06201,-0.62012 0,-0.27905 -0.04134,-0.56844 -0.03101,-0.28939 -0.09302,-0.54777 -0.05168,-0.26872 -0.124023,-0.4961 -0.06201,-0.23771 -0.113688,-0.40307 z" />
      <path
         id="path1965"
         style="font-style:normal;font-variant:normal;font-weight:normal;font-stretch:normal;font-size:21.16666603px;line-height:1.25;font-family:Pacifico;-inkscape-font-specification:Pacifico;letter-spacing:0px;fill:#616577;fill-opacity:1;stroke-width:0.26458332px"
         d="m 103.21357,272.58215 q 0,0.3514 -0.1757,1.04387 -0.16537,0.68213 -0.42375,1.5813 -0.25838,0.89917 -0.5581,1.95337 -0.29973,1.05419 -0.55811,2.1394 -0.25838,1.0852 -0.43408,2.1394 -0.16537,1.04387 -0.16537,1.94304 0,0.7338 0.093,1.37459 0.10336,0.63045 0.31006,1.10588 0.20671,0.46508 0.51677,0.7338 0.31005,0.26872 0.7338,0.26872 0.42375,0 0.81649,-0.24805 0.40307,-0.24804 0.77514,-0.68213 0.37208,-0.43408 0.71314,-1.03353 0.34106,-0.59944 0.65112,-1.29191 0.3204,-0.7028 0.59945,-1.46761 0.27905,-0.77514 0.5271,-1.56062 0.86816,-2.76986 1.53996,-6.29419 0.12402,-0.56844 0.28938,-0.95085 0.1757,-0.38241 0.41342,-0.60978 0.23771,-0.22738 0.54777,-0.3204 0.32039,-0.093 0.7338,-0.093 0.39274,0 0.64079,0.0723 0.25838,0.0723 0.40308,0.19637 0.15502,0.12403 0.21704,0.29973 0.062,0.1757 0.062,0.39274 0,0.0723 -0.0827,0.60978 -0.0827,0.5271 -0.21705,1.36426 -0.12402,0.82682 -0.27905,1.88102 -0.14469,1.0542 -0.27905,2.17041 -0.12402,1.10588 -0.20671,2.19108 -0.0827,1.08521 -0.0827,1.99471 0,0.93018 0.062,1.68465 0.0724,0.74414 0.22738,1.27124 0.16536,0.5271 0.42375,0.80615 0.25838,0.27906 0.64078,0.27906 0.66146,0 1.1989,-0.51677 0.54777,-0.51676 0.99218,-1.37459 0.45476,-0.86816 0.80616,-2.00505 0.36173,-1.13688 0.63045,-2.37711 0.27905,-1.24024 0.47542,-2.50114 0.20671,-1.26091 0.34107,-2.37712 0.13436,-1.12654 0.2067,-2.01538 0.0827,-0.89917 0.11369,-1.4056 0.031,-0.5271 0.18604,-0.84749 0.16536,-0.32039 0.41341,-0.49609 0.24804,-0.1757 0.5581,-0.22738 0.3204,-0.062 0.65113,-0.062 0.25838,0 0.46508,0.062 0.21704,0.0517 0.37207,0.19637 0.15503,0.13436 0.23772,0.37207 0.0827,0.22738 0.0827,0.58911 0,1.00253 -0.13436,2.17041 -0.12402,1.15755 -0.32039,2.32544 -0.18604,1.16789 -0.41342,2.27377 -0.21704,1.10587 -0.41341,1.99471 -0.18603,0.88883 -0.32039,1.49861 -0.12403,0.60978 -0.12403,0.77515 0,0.40307 0.11369,0.69246 0.11369,0.27906 0.29973,0.46509 0.19637,0.18604 0.45475,0.26872 0.26872,0.0827 0.56844,0.0827 0.29972,0 0.60978,-0.13436 0.3204,-0.14469 0.60978,-0.39274 0.28939,-0.24805 0.5271,-0.58911 0.24805,-0.3514 0.41341,-0.77515 l 0.1757,2.13941 q -0.76481,0.8785 -1.58129,1.38493 -0.80616,0.50642 -1.51929,0.50642 -0.34107,0 -0.64079,-0.10335 -0.29972,-0.11369 -0.53743,-0.34106 -0.22738,-0.22738 -0.38241,-0.58911 -0.15503,-0.36174 -0.21704,-0.85783 -0.51676,0.96118 -1.11621,1.73632 -0.58911,0.76482 -1.26091,1.31259 -0.66145,0.53743 -1.39526,0.82682 -0.72347,0.29972 -1.49862,0.29972 -0.98185,0 -1.67431,-0.51676 -0.68213,-0.51677 -1.11621,-1.4056 -0.42375,-0.88884 -0.62012,-2.08773 -0.19637,-1.19889 -0.19637,-2.55281 0,-0.4961 0.0517,-0.93018 0.0517,-0.43408 0.0827,-0.77515 -0.37207,2.35645 -0.94051,3.94808 -0.55811,1.5813 -1.32292,2.54248 -0.75448,0.96118 -1.73633,1.36426 -0.97152,0.41341 -2.16007,0.41341 -0.68213,0 -1.30225,-0.45475 -0.620117,-0.44442 -1.09554,-1.33325 -0.465088,-0.88884 -0.754476,-2.22209 -0.279052,-1.34359 -0.279052,-3.13159 0,-1.09554 0.124023,-2.24276 0.124024,-1.15755 0.3514,-2.3151 0.237711,-1.15755 0.578776,-2.29443 0.341064,-1.13689 0.775149,-2.21176 0.25838,-0.59944 0.51676,-0.93017 0.25838,-0.34107 0.5271,-0.4961 0.26872,-0.16536 0.53744,-0.19637 0.27905,-0.031 0.5581,-0.031 0.22738,0 0.41341,0.031 0.18604,0.031 0.31006,0.13436 0.13436,0.093 0.19637,0.27906 0.0724,0.1757 0.0724,0.48575 z" />
      <path
         id="path1967"
         style="font-style:normal;font-variant:normal;font-weight:normal;font-stretch:normal;font-size:21.16666603px;line-height:1.25;font-family:Pacifico;-inkscape-font-specification:Pacifico;letter-spacing:0px;fill:#616577;fill-opacity:1;stroke-width:0.26458332px"
         d="m 123.90481,288.51917 q -0.97151,0 -1.70532,-0.3514 -0.72347,-0.3514 -1.20923,-0.94052 -0.48576,-0.59944 -0.7338,-1.37459 -0.23771,-0.78548 -0.23771,-1.64331 0,-0.57878 0.11368,-1.21956 0.11369,-0.65113 0.34107,-1.27124 0.23771,-0.62012 0.58911,-1.17823 0.3514,-0.56844 0.81649,-0.99218 0.47542,-0.43409 1.0542,-0.68213 0.58911,-0.25838 1.30224,-0.25838 0.57878,0 1.07487,0.18603 0.4961,0.18604 0.85783,0.5271 0.37207,0.33073 0.57878,0.80615 0.2067,0.47543 0.2067,1.06454 0,0.64078 -0.32039,1.28157 -0.31006,0.64079 -0.86817,1.20923 -0.5581,0.56844 -1.33325,1.01286 -0.76481,0.44442 -1.66398,0.69246 0.15503,0.27906 0.29972,0.46509 0.15503,0.18604 0.31006,0.28939 0.15503,0.10335 0.3204,0.14469 0.1757,0.0413 0.37207,0.0413 0.62011,0 1.30224,-0.24804 0.69247,-0.24805 1.34359,-0.62012 0.65112,-0.37207 1.2299,-0.80615 0.57878,-0.44442 0.98185,-0.83716 l 1.33325,1.38493 q -0.9095,0.94051 -1.93269,1.66398 -0.44442,0.31006 -0.96119,0.60978 -0.50643,0.29972 -1.07487,0.53744 -0.5581,0.22737 -1.16788,0.37207 -0.59945,0.13436 -1.21957,0.13436 z m -1.37459,-4.85759 q 0.37207,0 0.80615,-0.18603 0.44442,-0.19638 0.81649,-0.4961 0.38241,-0.29972 0.64079,-0.65112 0.25838,-0.3514 0.25838,-0.68213 0,-0.46509 -0.1757,-0.76481 -0.16537,-0.29972 -0.41341,-0.29972 -0.44442,0 -0.76481,0.16536 -0.31006,0.16536 -0.5271,0.43408 -0.20671,0.25838 -0.34107,0.59945 -0.12402,0.33073 -0.19637,0.67179 -0.062,0.34107 -0.0827,0.66146 -0.0207,0.32039 -0.0207,0.54777 z" />
      <path
         id="path1969"
         style="font-style:normal;font-variant:normal;font-weight:normal;font-stretch:normal;font-size:21.16666603px;line-height:1.25;font-family:Pacifico;-inkscape-font-specification:Pacifico;letter-spacing:0px;fill:#616577;fill-opacity:1;stroke-width:0.26458332px"
         d="m 131.90432,280.19926 q 0.57878,-0.72347 1.0542,-1.15755 0.48576,-0.44442 0.96118,-0.44442 0.60978,0 1.08521,0.26872 0.47542,0.26872 0.80615,0.71313 0.33073,0.44442 0.50643,1.0232 0.1757,0.57877 0.1757,1.20922 0,0.5271 -0.0413,1.00253 -0.0413,0.46508 -0.15503,0.91984 -0.10335,0.44441 -0.29972,0.88883 -0.18604,0.44442 -0.4961,0.91984 0.37207,-0.21704 0.75448,-0.42374 0.3824,-0.20671 0.76481,-0.45476 0.39274,-0.24804 0.78548,-0.54777 0.39274,-0.31006 0.80615,-0.72347 l 0.79582,1.70533 q -0.56844,0.51676 -1.13688,0.89917 -0.55811,0.3824 -1.15755,0.67179 -0.58912,0.27905 -1.24024,0.48576 -0.64079,0.2067 -1.36426,0.37207 -0.1757,0.1757 -0.48575,0.3514 -0.29973,0.1757 -0.59945,0.32039 -0.34107,0.16537 -0.73381,0.3204 h -0.25838 q -0.8785,0 -1.74666,-0.23772 -0.85783,-0.24804 -1.56063,-0.54777 -0.81649,-0.34106 -1.56063,-0.78548 0.031,-0.83716 0.12403,-1.89136 0.0827,-0.9095 0.22737,-2.1394 0.1447,-1.24023 0.39274,-2.75952 0.16537,-1.01286 0.41341,-2.25309 0.24805,-1.25057 0.57878,-2.52181 0.34106,-1.28158 0.75448,-2.48047 0.42374,-1.20923 0.93017,-2.14974 0.51677,-0.94051 1.11621,-1.50895 0.60978,-0.56844 1.31258,-0.56844 0.78549,0 1.26091,0.26871 0.47542,0.26872 0.7338,0.73381 0.25839,0.45475 0.34107,1.07487 0.0827,0.62012 0.0827,1.32291 0,0.98186 -0.37207,2.02572 -0.36173,1.04386 -0.95085,2.08773 -0.58911,1.03353 -1.32291,2.02571 -0.72347,0.99219 -1.44694,1.87069 z m 0.93018,0.75448 q -0.36174,0 -0.72347,0.15502 -0.36174,0.1447 -0.6718,0.46509 -0.31005,0.31006 -0.54777,0.80616 -0.23771,0.48575 -0.3514,1.17822 -0.093,0.5581 -0.15503,1.03353 -0.062,0.46508 -0.10335,0.82682 -0.0413,0.41341 -0.0724,0.77515 0.34107,0.10335 0.68213,0.1757 0.29973,0.062 0.63046,0.11368 0.33073,0.0517 0.63045,0.0517 0.3514,0 0.64079,-0.20671 0.28938,-0.2067 0.51676,-0.54777 0.22738,-0.3514 0.39274,-0.79581 0.16537,-0.44442 0.26872,-0.91984 0.10335,-0.48576 0.15503,-0.95085 0.0517,-0.47542 0.0517,-0.86816 0,-0.25839 -0.062,-0.48576 -0.0517,-0.23771 -0.2067,-0.41341 -0.1447,-0.1757 -0.41341,-0.27906 -0.25839,-0.11368 -0.66146,-0.11368 z m 1.01286,-9.46713 q 0,-0.0413 -0.0207,-0.1757 -0.0103,-0.13436 -0.0724,-0.27905 -0.0517,-0.14469 -0.15503,-0.25838 -0.10335,-0.11369 -0.27905,-0.11369 -0.20671,0 -0.43409,0.29972 -0.21704,0.28939 -0.43408,0.79582 -0.21704,0.49609 -0.42374,1.15755 -0.20671,0.65113 -0.40308,1.3746 -0.19637,0.71313 -0.37207,1.45727 -0.16537,0.74414 -0.31006,1.41594 -0.13436,0.66145 -0.23771,1.21956 -0.10335,0.54777 -0.16537,0.88883 0.27906,-0.53743 0.62012,-1.11621 0.3514,-0.57877 0.7028,-1.19889 0.3514,-0.63045 0.68213,-1.28158 0.34106,-0.66145 0.60978,-1.34358 0.27905,-0.69247 0.45475,-1.39527 0.18604,-0.71313 0.23772,-1.44694 z" />
      <path
         id="path1971"
         style="font-style:normal;font-variant:normal;font-weight:normal;font-stretch:normal;font-size:21.16666603px;line-height:1.25;font-family:Pacifico;-inkscape-font-specification:Pacifico;letter-spacing:0px;fill:#616577;fill-opacity:1;stroke-width:0.26458332px"
         d="m 160.94648,285.02584 q -0.50643,0.21704 -0.98185,0.57877 -0.47542,0.3514 -0.96118,0.77515 -0.48576,0.42375 -1.01286,0.89917 -0.51676,0.46509 -1.12655,0.93018 -0.59944,0.45475 -1.31258,0.86816 -0.71313,0.42375 -1.5813,0.73381 -0.85783,0.32039 -1.90169,0.50642 -1.03353,0.18604 -2.29443,0.18604 -1.39527,0 -2.52181,-0.56844 -1.11621,-0.55811 -1.91203,-1.50895 -0.79582,-0.96118 -1.2299,-2.22209 -0.42375,-1.27124 -0.42375,-2.6665 0,-0.95085 0.20671,-2.03605 0.20671,-1.09554 0.58911,-2.22209 0.39274,-1.13688 0.95085,-2.26343 0.5581,-1.12654 1.2609,-2.16007 0.71314,-1.03353 1.56063,-1.91203 0.84749,-0.88884 1.80868,-1.53996 0.96118,-0.66146 2.02571,-1.03353 1.06454,-0.37207 2.21175,-0.37207 0.74414,0 1.50895,0.26872 0.76482,0.25838 1.3746,0.80615 0.60978,0.54777 0.99218,1.38493 0.39275,0.83716 0.39275,1.97404 0,0.76481 -0.24805,1.55029 -0.23771,0.77515 -0.66146,1.49862 -0.42375,0.71313 -1.00252,1.34359 -0.56844,0.63045 -1.2299,1.09554 -0.66146,0.45475 -1.37459,0.72347 -0.71314,0.26871 -1.42627,0.26871 -0.94051,0 -1.4056,-0.24804 -0.46509,-0.25838 -0.46509,-0.73381 0,-0.0827 -0.0103,-0.19637 0,-0.11369 0,-0.23771 0,-0.18603 0.0207,-0.38241 0.0207,-0.2067 0.0827,-0.37207 0.062,-0.16536 0.1757,-0.26871 0.12402,-0.10336 0.33073,-0.10336 0.12402,0 0.21704,0.0414 0.093,0.031 0.2067,0.0723 0.11369,0.0413 0.26872,0.0827 0.16536,0.031 0.41341,0.031 0.66146,0 1.33325,-0.28939 0.68213,-0.28939 1.21957,-0.81649 0.54777,-0.52709 0.88883,-1.25056 0.3514,-0.73381 0.3514,-1.61231 0,-0.46509 -0.12402,-0.8785 -0.12403,-0.42375 -0.40308,-0.7338 -0.27905,-0.3204 -0.72347,-0.50643 -0.43408,-0.19637 -1.06453,-0.19637 -0.74414,0 -1.45728,0.33073 -0.7028,0.32039 -1.35392,0.87849 -0.65112,0.55811 -1.24023,1.32292 -0.57878,0.76481 -1.07487,1.64331 -0.4961,0.86817 -0.89917,1.81901 -0.39275,0.94051 -0.6718,1.88102 -0.27905,0.94052 -0.43408,1.82935 -0.14469,0.8785 -0.14469,1.62264 0,1.06453 0.25838,1.86035 0.26872,0.78548 0.75447,1.31258 0.48576,0.5271 1.18856,0.78548 0.7028,0.25839 1.5813,0.25839 1.09554,0 2.03605,-0.26872 0.95085,-0.27905 1.80868,-0.72347 0.85783,-0.44442 1.65364,-1.00252 0.80616,-0.55811 1.60197,-1.11621 0.80615,-0.56845 1.63298,-1.07487 0.83716,-0.51677 1.76733,-0.86817 z" />
      <path
         id="path1973"
         style="font-style:normal;font-variant:normal;font-weight:normal;font-stretch:normal;font-size:21.16666603px;line-height:1.25;font-family:Pacifico;-inkscape-font-specification:Pacifico;letter-spacing:0px;fill:#616577;fill-opacity:1;stroke-width:0.26458332px"
         d="m 161.20486,288.51917 q -0.5581,0 -1.04386,-0.48576 -0.47542,-0.4961 -0.83716,-1.32292 -0.3514,-0.82682 -0.5581,-1.91203 -0.19637,-1.09554 -0.19637,-2.29443 0,-0.91984 0.13435,-1.99471 0.13436,-1.08521 0.39275,-2.23242 0.25838,-1.14722 0.60978,-2.30477 0.36173,-1.15755 0.80615,-2.22209 0.45475,-1.06453 0.98185,-1.98437 0.5271,-0.93018 1.10588,-1.61231 0.57877,-0.69246 1.20923,-1.0852 0.63045,-0.39274 1.28157,-0.39274 0.44442,0 0.73381,0.2067 0.28938,0.19637 0.45475,0.5271 0.16536,0.33073 0.22738,0.75448 0.0723,0.41341 0.0723,0.84749 0,0.97152 -0.22737,1.98438 -0.21704,1.00252 -0.59945,2.02571 -0.37207,1.01286 -0.86816,2.03605 -0.4961,1.0232 -1.03353,2.03605 -0.53744,1.00253 -1.08521,1.98438 -0.53743,0.97152 -1.01286,1.90169 -0.0517,0.10335 -0.11368,0.26872 -0.0517,0.16536 -0.10336,0.36173 -0.0517,0.18604 -0.10335,0.40308 -0.0517,0.21704 -0.0827,0.42375 v 0.14469 q 0,0.26872 0.0517,0.5271 0.062,0.24805 0.1447,0.45475 0.0827,0.19637 0.1757,0.3204 0.093,0.11369 0.1757,0.11369 0.19637,0 0.44442,-0.0827 0.25838,-0.0827 0.53743,-0.21704 0.28939,-0.14469 0.58911,-0.32039 0.29973,-0.18604 0.57878,-0.37207 0.65112,-0.43408 1.36426,-1.00253 l 0.84749,2.17042 q -0.91984,0.66145 -1.81901,1.17822 -0.39274,0.21704 -0.81649,0.43408 -0.41341,0.20671 -0.83716,0.37207 -0.42374,0.16536 -0.82682,0.26872 -0.40308,0.093 -0.75448,0.093 z m 0.0103,-8.26823 q 0.46509,-0.82683 0.98185,-1.86036 0.5271,-1.03352 0.99219,-2.12906 0.46509,-1.09554 0.80615,-2.18075 0.34107,-1.09554 0.43408,-2.03605 0,-0.29972 -0.0207,-0.50643 -0.0103,-0.21704 -0.093,-0.21704 -0.29973,0 -0.65113,0.39274 -0.34106,0.38241 -0.69246,1.04386 -0.34107,0.66146 -0.66146,1.53996 -0.31006,0.8785 -0.55811,1.87069 -0.24804,0.99219 -0.39274,2.04638 -0.14469,1.04387 -0.14469,2.03606 z" />
      <path
         id="path1975"
         style="font-style:normal;font-variant:normal;font-weight:normal;font-stretch:normal;font-size:21.16666603px;line-height:1.25;font-family:Pacifico;-inkscape-font-specification:Pacifico;letter-spacing:0px;fill:#616577;fill-opacity:1;stroke-width:0.26458332px"
         d="m 171.13707,286.31775 q -0.37207,0.34106 -0.93017,0.7338 -0.54777,0.38241 -1.18856,0.71314 -0.64079,0.32039 -1.31258,0.53743 -0.66146,0.21705 -1.26091,0.21705 -0.53743,0 -0.9095,-0.1447 -0.36174,-0.15503 -0.58911,-0.42375 -0.22738,-0.26871 -0.33073,-0.65112 -0.093,-0.39274 -0.093,-0.85783 0,-0.65112 0.1447,-1.50895 0.15502,-0.86816 0.37207,-1.788 0.21704,-0.93018 0.45475,-1.85002 0.24804,-0.91984 0.43408,-1.69499 0.0724,-0.26871 0.28939,-0.45475 0.21704,-0.19637 0.48576,-0.31006 0.27905,-0.12402 0.56844,-0.1757 0.29972,-0.062 0.53743,-0.062 0.43408,0 0.58911,0.16536 0.15503,0.15503 0.15503,0.42375 0,0.22738 -0.10335,0.66146 -0.10335,0.42375 -0.25838,0.97152 -0.15503,0.53743 -0.33073,1.16788 -0.1757,0.62012 -0.33073,1.25057 -0.15503,0.62012 -0.25838,1.21957 -0.10336,0.58911 -0.10336,1.06453 0,0.46509 0.10336,0.74414 0.10335,0.26872 0.42374,0.26872 0.37207,0 0.82683,-0.25838 0.45475,-0.25838 0.91984,-0.62012 0.46509,-0.37207 0.9095,-0.76481 0.44442,-0.39274 0.78548,-0.67179 z m -4.61987,-10.62468 q 0,-0.23771 0.10335,-0.53743 0.10336,-0.29972 0.33073,-0.55811 0.23771,-0.26871 0.62012,-0.44441 0.39274,-0.18604 0.97152,-0.18604 0.36173,0 0.68213,0.0827 0.32039,0.0827 0.5581,0.25839 0.23771,0.16536 0.37207,0.44441 0.1447,0.27906 0.1447,0.66146 0,0.3514 -0.11369,0.68213 -0.11369,0.33073 -0.36174,0.58911 -0.24804,0.25838 -0.63045,0.42375 -0.37207,0.15503 -0.89917,0.15503 -0.9095,0 -1.34359,-0.42375 -0.43408,-0.43408 -0.43408,-1.14722 z" />
      <path
         id="path1977"
         style="font-style:normal;font-variant:normal;font-weight:normal;font-stretch:normal;font-size:21.16666603px;line-height:1.25;font-family:Pacifico;-inkscape-font-specification:Pacifico;letter-spacing:0px;fill:#616577;fill-opacity:1;stroke-width:0.26458332px"
         d="m 174.60972,286.67948 q 1.04386,0 1.90169,-0.2067 0.85783,-0.20671 1.5503,-0.55811 0.7028,-0.3514 1.2609,-0.81648 0.56844,-0.47543 1.02319,-1.01286 l 0.11369,2.36678 q -0.33073,0.40307 -0.80615,0.78548 -0.46509,0.37207 -1.02319,0.66146 -0.55811,0.27905 -1.17823,0.45475 -0.60978,0.16537 -1.20922,0.16537 -0.0724,0 -0.18604,-0.0207 -0.10335,-0.0207 -0.37207,-0.0723 -0.26872,-0.0517 -0.77515,-0.13436 -0.49609,-0.093 -1.35392,-0.21704 v 0.18603 q 0,1.88102 -0.32039,3.41065 -0.31006,1.53995 -0.83716,2.62516 -0.5271,1.08521 -1.20923,1.67432 -0.68213,0.58911 -1.41593,0.58911 -0.58911,0 -0.98186,-0.28939 -0.39274,-0.28939 -0.62011,-0.78548 -0.23771,-0.48576 -0.33073,-1.14722 -0.10335,-0.65112 -0.10335,-1.38493 0,-0.42374 0.13435,-0.96118 0.13436,-0.5271 0.36174,-1.11621 0.22738,-0.57878 0.51676,-1.18856 0.27906,-0.59944 0.57878,-1.16788 0.7028,-1.32292 1.60197,-2.72852 0.11369,-0.80615 0.22737,-1.65365 0.12403,-0.84749 0.29973,-1.64331 0.18603,-0.79581 0.45475,-1.50895 0.27905,-0.71313 0.7028,-1.24023 0.43408,-0.5271 1.03353,-0.83716 0.59945,-0.31006 1.44694,-0.31006 0.63045,0 1.17822,0.1757 0.54777,0.16536 0.96118,0.54777 0.41341,0.38241 0.65113,0.99219 0.23771,0.59944 0.23771,1.47794 0,0.7028 -0.20671,1.36426 -0.2067,0.65112 -0.65112,1.25057 -0.43408,0.59945 -1.11621,1.12655 -0.6718,0.51676 -1.60197,0.93017 z m -1.30225,-1.04386 q 0.62012,-0.31006 1.06454,-0.69246 0.45475,-0.38241 0.77515,-0.81649 0.33072,-0.43408 0.53743,-0.89917 0.20671,-0.46509 0.33073,-0.95085 0.0517,-0.22737 0.062,-0.5271 0.0207,-0.31006 -0.062,-0.57877 -0.0724,-0.26872 -0.26872,-0.45476 -0.18603,-0.19637 -0.5271,-0.19637 -0.3824,0 -0.67179,0.21704 -0.28939,0.20671 -0.50643,0.56845 -0.20671,0.36173 -0.3514,0.85782 -0.13436,0.4961 -0.22738,1.06454 -0.0827,0.56844 -0.12402,1.18856 -0.031,0.60978 -0.031,1.21956 z m -3.59668,7.44141 q 0,0.0827 0.031,0.26871 0.0413,0.18604 0.12402,0.37207 0.0827,0.18604 0.21705,0.33073 0.13435,0.1447 0.33072,0.1447 0.1757,0 0.28939,-0.19637 0.11369,-0.18604 0.18604,-0.50643 0.0723,-0.3204 0.10335,-0.72347 0.031,-0.40308 0.0517,-0.82683 0.0207,-0.42374 0.0207,-0.82682 0.0103,-0.40307 0.031,-0.72347 0.031,-0.5581 0.0413,-0.95084 0.0207,-0.38241 0.031,-0.64079 0.0103,-0.28939 0.0207,-0.48576 -0.19637,0.34106 -0.3824,0.78548 -0.18604,0.45475 -0.3514,0.94051 -0.16537,0.48576 -0.29973,0.97152 -0.13436,0.48576 -0.23771,0.89917 -0.093,0.42375 -0.15503,0.72347 -0.0517,0.31006 -0.0517,0.44442 z" />
      <path
         id="path1979"
         style="font-style:normal;font-variant:normal;font-weight:normal;font-stretch:normal;font-size:21.16666603px;line-height:1.25;font-family:Pacifico;-inkscape-font-specification:Pacifico;letter-spacing:0px;fill:#616577;fill-opacity:1;stroke-width:0.26458332px"
         d="m 183.45674,286.67948 q 1.04386,0 1.90169,-0.2067 0.85783,-0.20671 1.55029,-0.55811 0.7028,-0.3514 1.26091,-0.81648 0.56844,-0.47543 1.02319,-1.01286 l 0.11369,2.36678 q -0.33073,0.40307 -0.80615,0.78548 -0.46509,0.37207 -1.0232,0.66146 -0.5581,0.27905 -1.17822,0.45475 -0.60978,0.16537 -1.20923,0.16537 -0.0724,0 -0.18603,-0.0207 -0.10336,-0.0207 -0.37207,-0.0723 -0.26872,-0.0517 -0.77515,-0.13436 -0.49609,-0.093 -1.35392,-0.21704 v 0.18603 q 0,1.88102 -0.3204,3.41065 -0.31006,1.53995 -0.83716,2.62516 -0.5271,1.08521 -1.20922,1.67432 -0.68213,0.58911 -1.41594,0.58911 -0.58911,0 -0.98185,-0.28939 -0.39274,-0.28939 -0.62012,-0.78548 -0.23771,-0.48576 -0.33073,-1.14722 -0.10335,-0.65112 -0.10335,-1.38493 0,-0.42374 0.13436,-0.96118 0.13436,-0.5271 0.36173,-1.11621 0.22738,-0.57878 0.51677,-1.18856 0.27905,-0.59944 0.57877,-1.16788 0.7028,-1.32292 1.60197,-2.72852 0.11369,-0.80615 0.22738,-1.65365 0.12402,-0.84749 0.29972,-1.64331 0.18604,-0.79581 0.45476,-1.50895 0.27905,-0.71313 0.7028,-1.24023 0.43408,-0.5271 1.03352,-0.83716 0.59945,-0.31006 1.44694,-0.31006 0.63046,0 1.17823,0.1757 0.54777,0.16536 0.96118,0.54777 0.41341,0.38241 0.65112,0.99219 0.23771,0.59944 0.23771,1.47794 0,0.7028 -0.2067,1.36426 -0.20671,0.65112 -0.65113,1.25057 -0.43408,0.59945 -1.11621,1.12655 -0.67179,0.51676 -1.60197,0.93017 z m -1.30225,-1.04386 q 0.62012,-0.31006 1.06453,-0.69246 0.45476,-0.38241 0.77515,-0.81649 0.33073,-0.43408 0.53744,-0.89917 0.2067,-0.46509 0.33072,-0.95085 0.0517,-0.22737 0.062,-0.5271 0.0207,-0.31006 -0.062,-0.57877 -0.0723,-0.26872 -0.26871,-0.45476 -0.18604,-0.19637 -0.5271,-0.19637 -0.38241,0 -0.6718,0.21704 -0.28938,0.20671 -0.50642,0.56845 -0.20671,0.36173 -0.3514,0.85782 -0.13436,0.4961 -0.22738,1.06454 -0.0827,0.56844 -0.12402,1.18856 -0.031,0.60978 -0.031,1.21956 z m -3.59668,7.44141 q 0,0.0827 0.031,0.26871 0.0413,0.18604 0.12402,0.37207 0.0827,0.18604 0.21704,0.33073 0.13436,0.1447 0.33073,0.1447 0.1757,0 0.28939,-0.19637 0.11369,-0.18604 0.18603,-0.50643 0.0724,-0.3204 0.10336,-0.72347 0.031,-0.40308 0.0517,-0.82683 0.0207,-0.42374 0.0207,-0.82682 0.0103,-0.40307 0.031,-0.72347 0.031,-0.5581 0.0413,-0.95084 0.0207,-0.38241 0.031,-0.64079 0.0103,-0.28939 0.0207,-0.48576 -0.19637,0.34106 -0.38241,0.78548 -0.18603,0.45475 -0.3514,0.94051 -0.16536,0.48576 -0.29972,0.97152 -0.13436,0.48576 -0.23771,0.89917 -0.093,0.42375 -0.15503,0.72347 -0.0517,0.31006 -0.0517,0.44442 z" />
      <path
         id="path1981"
         style="font-style:normal;font-variant:normal;font-weight:normal;font-stretch:normal;font-size:21.16666603px;line-height:1.25;font-family:Pacifico;-inkscape-font-specification:Pacifico;letter-spacing:0px;fill:#616577;fill-opacity:1;stroke-width:0.26458332px"
         d="m 191.58027,288.51917 q -0.97152,0 -1.70533,-0.3514 -0.72347,-0.3514 -1.20922,-0.94052 -0.48576,-0.59944 -0.73381,-1.37459 -0.23771,-0.78548 -0.23771,-1.64331 0,-0.57878 0.11369,-1.21956 0.11368,-0.65113 0.34106,-1.27124 0.23771,-0.62012 0.58911,-1.17823 0.3514,-0.56844 0.81649,-0.99218 0.47542,-0.43409 1.0542,-0.68213 0.58911,-0.25838 1.30225,-0.25838 0.57877,0 1.07486,0.18603 0.4961,0.18604 0.85783,0.5271 0.37207,0.33073 0.57878,0.80615 0.20671,0.47543 0.20671,1.06454 0,0.64078 -0.3204,1.28157 -0.31006,0.64079 -0.86816,1.20923 -0.55811,0.56844 -1.33325,1.01286 -0.76482,0.44442 -1.66399,0.69246 0.15503,0.27906 0.29973,0.46509 0.15503,0.18604 0.31006,0.28939 0.15503,0.10335 0.32039,0.14469 0.1757,0.0413 0.37207,0.0413 0.62012,0 1.30225,-0.24804 0.69246,-0.24805 1.34358,-0.62012 0.65113,-0.37207 1.2299,-0.80615 0.57878,-0.44442 0.98185,-0.83716 l 1.33326,1.38493 q -0.90951,0.94051 -1.9327,1.66398 -0.44442,0.31006 -0.96118,0.60978 -0.50643,0.29972 -1.07487,0.53744 -0.55811,0.22737 -1.16789,0.37207 -0.59945,0.13436 -1.21956,0.13436 z m -1.3746,-4.85759 q 0.37207,0 0.80616,-0.18603 0.44441,-0.19638 0.81648,-0.4961 0.38241,-0.29972 0.64079,-0.65112 0.25838,-0.3514 0.25838,-0.68213 0,-0.46509 -0.1757,-0.76481 -0.16536,-0.29972 -0.41341,-0.29972 -0.44442,0 -0.76481,0.16536 -0.31006,0.16536 -0.5271,0.43408 -0.20671,0.25838 -0.34106,0.59945 -0.12403,0.33073 -0.19637,0.67179 -0.062,0.34107 -0.0827,0.66146 -0.0207,0.32039 -0.0207,0.54777 z" />
      <path
         id="path1983"
         style="font-style:normal;font-variant:normal;font-weight:normal;font-stretch:normal;font-size:21.16666603px;line-height:1.25;font-family:Pacifico;-inkscape-font-specification:Pacifico;letter-spacing:0px;fill:#616577;fill-opacity:1;stroke-width:0.26458332px"
         d="m 196.23115,286.35909 q 0,-0.45475 0.0517,-1.0542 0.0517,-0.60978 0.13436,-1.28157 0.093,-0.6718 0.2067,-1.36426 0.12402,-0.7028 0.25838,-1.33325 0.13436,-0.63046 0.26872,-1.15756 0.13436,-0.5271 0.26872,-0.86816 0.0827,-0.22738 0.16536,-0.36174 0.0827,-0.13435 0.18604,-0.2067 0.11369,-0.0827 0.26872,-0.10335 0.16536,-0.031 0.40307,-0.031 0.26872,0 0.41341,0.031 0.15503,0.0207 0.22738,0.12402 0.0724,0.093 0.0827,0.27905 0.0207,0.18604 0.0207,0.50643 0,0.38241 0,0.93018 0,0.53743 0.0207,1.06453 h 0.11369 q 0.20671,-0.41341 0.46509,-0.91984 0.25838,-0.51676 0.59944,-0.96118 0.34107,-0.44442 0.77515,-0.74414 0.43408,-0.31006 1.00252,-0.31006 0.19637,0 0.38241,0.0724 0.18603,0.062 0.32039,0.18603 0.1447,0.12403 0.22738,0.31006 0.0827,0.1757 0.0827,0.40308 0,0.1757 -0.0517,0.49609 -0.0517,0.31006 -0.11369,0.66146 -0.062,0.34106 -0.11369,0.67179 -0.0517,0.3204 -0.0517,0.53744 0,0.37207 0.0724,0.62011 0.0724,0.24805 0.18604,0.40308 0.12402,0.1447 0.26871,0.20671 0.15503,0.062 0.3204,0.062 0.46508,0 0.96118,-0.20671 0.49609,-0.2067 0.9095,-0.46509 0.48576,-0.29972 0.95085,-0.68212 l -0.15503,2.41845 q -0.26872,0.1757 -0.60978,0.39274 -0.34107,0.21704 -0.73381,0.41342 -0.3824,0.18603 -0.80615,0.32039 -0.41341,0.12402 -0.84749,0.12402 -0.77515,0 -1.25057,-0.31006 -0.47543,-0.32039 -0.75448,-0.82682 -0.27905,-0.51676 -0.41341,-1.14722 -0.13436,-0.64078 -0.21704,-1.29191 h -0.16537 l -1.85001,5.15731 q -0.1447,0.40308 -0.27905,0.6718 -0.12403,0.25838 -0.25839,0.42374 -0.13435,0.16537 -0.28938,0.23771 -0.15503,0.062 -0.34107,0.062 -0.42375,0 -0.68213,-0.1757 -0.25838,-0.18604 -0.40307,-0.48576 -0.13436,-0.31006 -0.18604,-0.69247 -0.0413,-0.39274 -0.0413,-0.80615 z" />
    </g>
  </g>
</svg>
